<svg width="15.998047" height="16.000000" viewBox="0 0 15.998 16" fill="none" xmlns="http://www.w3.org/2000/svg" xmlns:xlink="http://www.w3.org/1999/xlink">

	<defs/>
	<path id="Vector" class="colortheme-elemnts" d="M6.39 0C5.38 0 4.37 0.24 3.47 0.7C2.56 1.17 1.78 1.85 1.19 2.67C0.6 3.5 0.21 4.46 0.06 5.47C-0.09 6.48 0.01 7.51 0.34 8.47C0.67 9.43 1.23 10.3 1.96 11.01C2.69 11.71 3.59 12.24 4.56 12.53C5.54 12.82 6.57 12.87 7.57 12.69C8.57 12.5 9.51 12.08 10.32 11.45L14.63 15.76C14.78 15.91 14.98 16 15.19 16C15.41 15.99 15.61 15.91 15.76 15.76C15.91 15.61 15.99 15.41 15.99 15.19C15.99 14.98 15.91 14.78 15.76 14.63L11.45 10.32C12.18 9.37 12.64 8.24 12.76 7.05C12.88 5.86 12.67 4.66 12.14 3.58C11.62 2.5 10.8 1.6 9.78 0.96C8.77 0.33 7.59 -0.01 6.39 0ZM1.59 6.39C1.59 5.12 2.1 3.9 3 3C3.9 2.1 5.12 1.59 6.39 1.59C7.67 1.59 8.89 2.1 9.79 3C10.69 3.9 11.19 5.12 11.19 6.39C11.19 7.67 10.69 8.89 9.79 9.79C8.89 10.69 7.67 11.19 6.39 11.19C5.12 11.19 3.9 10.69 3 9.79C2.1 8.89 1.59 7.67 1.59 6.39Z" fill="#DEDEDE" fill-opacity="1.000000" fill-rule="nonzero"/>
</svg>
