<svg width="19.200195" height="22.800018" viewBox="0 0 19.2002 22.8" fill="none" xmlns="http://www.w3.org/2000/svg" xmlns:xlink="http://www.w3.org/1999/xlink">
	<defs/>
	<path id="Vector" d="M18.57 15.55C17.97 17.22 16.95 18.71 15.6 19.9C14.25 21.09 12.6 21.95 10.79 22.41C8.98 22.87 7.06 22.92 5.19 22.54C3.31 22.17 1.53 21.39 0 20.27C2.57 20.43 5.09 19.83 7.19 18.53C9.3 17.23 10.87 15.31 11.69 13.05C12.51 10.79 12.52 8.3 11.74 5.96C10.95 3.61 9.41 1.52 7.32 0C9.22 0.12 11.08 0.66 12.76 1.58C14.44 2.5 15.89 3.77 16.98 5.28C18.08 6.8 18.79 8.52 19.07 10.3C19.34 12.08 19.17 13.88 18.57 15.55Z" fill="#121212" fill-opacity="1.000000" fill-rule="nonzero"/>
</svg>
